<?xml version="1.0" standalone="no"?>
<!DOCTYPE svg PUBLIC "-//W3C//DTD SVG 20010904//EN"
 "http://www.w3.org/TR/2001/REC-SVG-20010904/DTD/svg10.dtd">
<svg version="1.0" xmlns="http://www.w3.org/2000/svg"
 width="200.000000pt" height="200.000000pt" viewBox="0 0 200.000000 200.000000"
 preserveAspectRatio="xMidYMid meet">
<metadata>
Created by potrace 1.14, written by Peter Selinger 2001-2017
</metadata>
<g transform="translate(0.000000,200.000000) scale(0.100000,-0.100000)"
fill="#000000" stroke="none">
<path d="M0 1984 c0 -14 3 -14 15 -4 8 7 15 14 15 16 0 2 -7 4 -15 4 -8 0 -15
-7 -15 -16z"/>
<path d="M42 1957 c-34 -35 -42 -50 -42 -80 0 -32 5 -40 40 -62 22 -14 40 -29
40 -34 0 -5 -18 -39 -40 -75 -37 -60 -40 -72 -40 -136 0 -63 2 -71 25 -86 14
-9 25 -23 25 -30 0 -12 -5 -11 -25 2 l-25 16 0 -157 c0 -168 5 -187 63 -252
19 -22 19 -22 -3 -58 -12 -19 -30 -40 -41 -45 -18 -10 -19 -28 -19 -486 l0
-474 413 3 c372 2 416 4 457 21 25 10 70 20 101 23 52 5 57 8 68 37 6 17 20
42 30 55 l19 24 11 -52 c6 -29 18 -65 26 -81 15 -28 19 -30 75 -30 33 0 60 3
60 8 1 4 3 23 6 42 3 19 -2 63 -10 98 -13 59 -13 63 4 72 26 14 100 12 130 -3
35 -17 47 -66 26 -107 -8 -18 -13 -36 -11 -40 3 -5 35 -22 71 -39 l66 -31 229
0 229 0 0 1000 0 1000 -958 0 -958 0 -42 -43z m56 -762 c42 -36 34 -44 -15
-14 -51 31 -54 37 -47 89 9 74 18 79 24 14 4 -54 9 -65 38 -89z m1441 -12 c32
-32 68 -88 75 -115 7 -32 -15 -92 -47 -126 -59 -64 -170 -85 -237 -46 -48 28
-91 93 -97 146 -6 53 1 60 80 77 62 14 149 46 182 68 24 16 22 16 44 -4z
m-816 -18 c50 -22 57 -29 67 -66 19 -68 -6 -136 -61 -165 -43 -22 -68 -17
-104 19 -54 54 -57 162 -7 220 20 23 39 22 105 -8z m-183 -96 c0 -136 77 -217
181 -189 44 12 107 78 115 120 6 29 7 29 83 32 65 3 76 5 75 21 -2 21 -3 21
41 -5 21 -12 63 -24 98 -27 59 -6 60 -7 74 -45 32 -94 106 -146 206 -146 64 0
110 16 162 56 41 31 85 100 85 132 0 20 4 22 43 16 72 -11 70 1 42 -291 l-18
-202 -91 -42 c-123 -56 -326 -122 -466 -150 -153 -31 -403 -34 -525 -5 -165
38 -282 112 -332 210 -35 68 -42 170 -19 252 25 88 93 221 117 227 11 3 19 14
19 26 0 12 16 39 36 61 30 33 39 38 55 29 16 -8 19 -21 19 -80z m-227 -84 c1
-5 -10 -11 -25 -13 -16 -2 -28 1 -28 7 0 20 49 26 53 6z m1615 -27 c3 -15 -1
-16 -30 -7 -18 5 -48 9 -65 9 -18 0 -33 5 -33 10 0 7 24 10 62 8 50 -2 63 -7
66 -20z m9 -354 c2 -7 -19 -13 -59 -16 -35 -3 -69 -7 -77 -9 -27 -7 -22 19 6
29 36 14 125 11 130 -4z m-1688 -32 c9 -17 6 -18 -40 -8 -59 12 -64 26 -9 26
28 0 42 -5 49 -18z m962 -422 c6 -41 15 -82 19 -90 10 -18 -11 -50 -32 -50
-22 0 -50 47 -53 90 -3 37 -31 102 -67 152 l-19 27 23 5 c13 3 43 9 68 14 l45
8 2 -41 c2 -22 8 -74 14 -115z"/>
<path d="M1410 1025 c0 -8 7 -15 15 -15 8 0 15 7 15 15 0 8 -7 15 -15 15 -8 0
-15 -7 -15 -15z"/>
<path d="M646 1051 c-4 -7 -5 -15 -2 -18 9 -9 19 4 14 18 -4 11 -6 11 -12 0z"/>
<path d="M912 982 c-46 -14 -90 -61 -114 -119 -20 -52 -23 -75 -23 -208 0
-155 13 -225 41 -225 10 0 12 8 6 33 -12 56 -8 308 7 357 7 26 29 60 51 82 33
33 44 38 85 38 89 0 213 -89 265 -190 36 -70 53 -150 47 -217 -5 -51 -3 -63 8
-63 23 0 35 35 35 103 0 161 -94 312 -239 387 -46 23 -130 34 -169 22z"/>
<path d="M934 833 c2 -10 7 -33 11 -50 4 -18 12 -33 19 -33 10 0 11 11 3 50
-6 32 -15 50 -24 50 -9 0 -12 -7 -9 -17z"/>
<path d="M984 834 c5 -11 15 -38 23 -61 17 -50 39 -58 29 -12 -8 43 -28 82
-45 87 -10 4 -12 0 -7 -14z"/>
<path d="M0 1755 c0 -25 2 -45 5 -45 5 0 35 55 35 64 0 3 -9 10 -20 16 -19 10
-20 8 -20 -35z"/>
</g>
</svg>
